HIERARCHY
ROOT Hips
{
	OFFSET 0.00000 0.00000 0.00000
	CHANNELS 6 Xposition Yposition Zposition Zrotation Yrotation Xrotation 
	JOINT LHipJoint
	{
		OFFSET 0 0 0
		CHANNELS 3 Zrotation Yrotation Xrotation
		JOINT LeftUpLeg
		{
			OFFSET 1.70593 -1.62653 0.87602
			CHANNELS 3 Zrotation Yrotation Xrotation
			JOINT LeftLeg
			{
				OFFSET 2.32330 -6.38322 0.00000
				CHANNELS 3 Zrotation Yrotation Xrotation
				JOINT LeftFoot
				{
					OFFSET 2.45016 -6.73177 0.00000
					CHANNELS 3 Zrotation Yrotation Xrotation
					JOINT LeftToeBase
					{
						OFFSET 0.13029 -0.35798 1.96980
						CHANNELS 3 Zrotation Yrotation Xrotation
						End Site
						{
							OFFSET 0.00000 -0.00000 1.01270
						}
					}
				}
			}
		}
	}
	JOINT RHipJoint
	{
		OFFSET 0 0 0
		CHANNELS 3 Zrotation Yrotation Xrotation
		JOINT RightUpLeg
		{
			OFFSET -1.80599 -1.62652 0.87602
			CHANNELS 3 Zrotation Yrotation Xrotation
			JOINT RightLeg
			{
				OFFSET -2.45375 -6.74162 0.00000
				CHANNELS 3 Zrotation Yrotation Xrotation
				JOINT RightFoot
				{
					OFFSET -2.45828 -6.75406 0.00000
					CHANNELS 3 Zrotation Yrotation Xrotation
					JOINT RightToeBase
					{
						OFFSET -0.13801 -0.37917 1.88456
						CHANNELS 3 Zrotation Yrotation Xrotation
						End Site
						{
							OFFSET -0.00000 -0.00000 0.97281
						}
					}
				}
			}
		}
	}
	JOINT LowerBack
	{
		OFFSET 0 0 0
		CHANNELS 3 Zrotation Yrotation Xrotation
		JOINT Spine
		{
			OFFSET 0.01003 2.00576 -0.14267
			CHANNELS 3 Zrotation Yrotation Xrotation
			JOINT Spine1
			{
				OFFSET 0.00908 2.01191 0.01660
				CHANNELS 3 Zrotation Yrotation Xrotation
				JOINT Neck
				{
					OFFSET 0 0 0
					CHANNELS 3 Zrotation Yrotation Xrotation
					JOINT Neck1
					{
						OFFSET -0.05849 1.60301 0.18934
						CHANNELS 3 Zrotation Yrotation Xrotation
						JOINT Head
						{
							OFFSET 0.01775 1.59435 -0.07960
							CHANNELS 3 Zrotation Yrotation Xrotation
							End Site
							{
								OFFSET 0.01210 1.70732 -0.05248
							}
						}
					}
				}
				JOINT LeftShoulder
				{
					OFFSET 0 0 0
					CHANNELS 3 Zrotation Yrotation Xrotation
					JOINT LeftArm
					{
						OFFSET 3.15315 1.26460 0.30667
						CHANNELS 3 Zrotation Yrotation Xrotation
						JOINT LeftForeArm
						{
							OFFSET 4.97694 -0.00000 -0.00000
							CHANNELS 3 Zrotation Yrotation Xrotation
							JOINT LeftHand
							{
								OFFSET 3.14391 -0.00000 -0.00000
								CHANNELS 3 Zrotation Yrotation Xrotation
								JOINT LeftFingerBase
								{
									OFFSET 0 0 0
									CHANNELS 3 Zrotation Yrotation Xrotation
									JOINT LeftHandIndex1
									{
										OFFSET 0.59358 -0.00000 -0.00000
										CHANNELS 3 Zrotation Yrotation Xrotation
										End Site
										{
											OFFSET 0.47856 -0.00000 -0.00000
										}
									}
								}
								JOINT LThumb
								{
									OFFSET 0 0 0
									CHANNELS 3 Zrotation Yrotation Xrotation
									End Site
									{
										OFFSET 0.48587 -0.00000 0.48587
									}
								}
							}
						}
					}
				}
				JOINT RightShoulder
				{
					OFFSET 0 0 0
					CHANNELS 3 Zrotation Yrotation Xrotation
					JOINT RightArm
					{
						OFFSET -3.25568 1.35581 0.18982
						CHANNELS 3 Zrotation Yrotation Xrotation
						JOINT RightForeArm
						{
							OFFSET -4.90473 -0.00000 0.00000
							CHANNELS 3 Zrotation Yrotation Xrotation
							JOINT RightHand
							{
								OFFSET -3.21621 0.00006 -0.00004
								CHANNELS 3 Zrotation Yrotation Xrotation
								JOINT RightFingerBase
								{
									OFFSET 0 0 0
									CHANNELS 3 Zrotation Yrotation Xrotation
									JOINT RightHandIndex1
									{
										OFFSET -0.62353 -0.00000 -0.00000
										CHANNELS 3 Zrotation Yrotation Xrotation
										End Site
										{
											OFFSET -0.50270 -0.00000 -0.00000
										}
									}
								}
								JOINT RThumb
								{
									OFFSET 0 0 0
									CHANNELS 3 Zrotation Yrotation Xrotation
									End Site
									{
										OFFSET -0.51038 -0.00000 0.51038
									}
								}
							}
						}
					}
				}
			}
		}
	}
}
MOTION
Frames: 15
Frame Time: .0083333
8.6732 15.3502 -35.602 0 0 0 0 0 0 -21 0 0 0 0 0 0 0 0 0 0 0 0 0 0 21 0 0 0 0 0 0 0 0 0 0 0 0 0 0 0 0 0 0 0 0 0 0 -16 0 0 21 0 0 11 0 0 0 -8 0 0 0 0 0 0 0 0 0 0 0 0 0 0 0 0 0 0 0 0 8 0 0 0 0 0 0 0 0 0 0 0 0 0 0 0 0 0
8.6732 15.3502 -35.6020 -2.1248 -2.8463 8.5651 0.0000 0.0000 0.0000 -18.5045 -2.6497 -29.3346 11.6204 18.2255 64.7805 0.4507 -3.3911 -11.9730 0.5099 -4.5773 -12.7068 0.0000 0.0000 0.0000 25.0121 14.2350 -22.5851 -4.8526 -13.2158 40.1819 -0.7074 17.2434 -18.0648 -0.0000 -0.0105 0.0289 3.0713 2.0638 2.3261 2.2217 2.9575 -2.3837 0.4085 1.4216 -3.7241 -3.3253 -1.4634 -9.9959 2.6910 -1.8655 14.2310 1.2469 -0.8766 6.0099 0.0000 0.0000 0.0000 -86.2525 2.8961 43.8993 23.7916 -34.9431 -7.5869 -0.0000 0.0000 -16.6003 25.8623 -13.7221 -6.5597 -7.1250 0.0000 -0.0000 -1.0545 14.7994 0.7503 0.0000 0.0000 0.0000 85.9133 -10.1822 18.3740 -15.2076 24.4345 -3.3113 0.0000 0.0000 2.1524 -31.1867 -35.1863 19.2287 7.1250 -0.0000 -0.0000 2.9733 -69.4531 -1.7411
8.6887 15.3647 -35.3272 -2.6109 -2.9912 8.4491 0.0000 0.0000 0.0000 -17.7411 -3.1918 -31.0688 11.3645 18.1089 63.9597 0.7023 1.2550 -16.3331 2.6419 -10.0914 -29.2733 0.0000 0.0000 0.0000 25.7794 13.4846 -20.9785 -4.6470 -12.9749 39.2747 -0.6747 17.8573 -18.1014 -0.0054 -0.4746 1.3041 3.5935 2.1665 2.5743 2.2447 3.1258 -2.2927 0.1250 1.4914 -3.7428 -3.2071 -1.5453 -9.9573 2.6272 -1.9857 14.1406 1.1975 -0.9337 5.9768 0.0000 0.0000 0.0000 -86.3456 3.8634 43.1162 22.3042 -33.3191 -6.7522 -0.0000 0.0000 -15.6475 25.8802 -14.2674 -6.8181 -7.1250 0.0000 -0.0000 -1.0842 14.1994 0.7853 0.0000 0.0000 0.0000 85.7903 -9.3632 21.1408 -16.2114 25.8064 -3.7375 0.0000 0.0000 0.2796 -31.1814 -35.5188 19.3712 7.1250 -0.0000 -0.0000 3.2469 -69.7939 -1.9263
8.6952 15.3761 -35.0724 -3.0447 -2.5435 8.8197 0.0000 0.0000 0.0000 -16.8433 -4.4071 -33.2665 10.9926 17.9314 62.7574 0.6942 -3.0866 -14.9947 0.9203 -6.1120 -17.1099 0.0000 0.0000 0.0000 26.4185 12.5082 -20.0930 -4.4441 -12.7290 38.3623 -0.6672 18.3911 -18.2976 -0.0243 -1.0060 2.7654 3.9680 2.1231 2.4986 2.3047 3.0848 -2.3633 -0.0171 1.4608 -3.7593 -2.9116 -1.5609 -9.8352 2.5076 -2.0359 13.9482 1.1076 -0.9523 5.8925 0.0000 0.0000 0.0000 -86.4464 4.6033 42.5282 20.8097 -31.6055 -5.9499 -0.0000 0.0000 -14.9154 25.9470 -14.3430 -6.8733 -7.1250 0.0000 -0.0000 -1.0449 14.1081 0.7588 0.0000 0.0000 0.0000 85.6637 -8.4660 22.8791 -17.2725 27.2156 -4.2112 0.0000 0.0000 0.4382 -31.0144 -37.8656 20.2553 7.1250 -0.0000 -0.0000 5.7100 -72.1238 -3.6851
8.7035 15.3726 -34.7995 -3.1619 -2.6853 8.9270 0.0000 0.0000 0.0000 -16.4498 -5.0142 -34.8888 10.5536 17.7096 61.3231 0.7241 -4.9567 -15.1673 0.3512 -3.8074 -10.5355 0.0000 0.0000 0.0000 26.7455 11.4141 -18.9751 -4.2439 -12.4781 37.4449 -0.5956 19.1102 -18.1332 -0.0158 -0.8115 2.2303 3.9949 2.2752 2.4920 2.2338 3.2855 -2.3503 -0.1149 1.5595 -3.7308 -2.9013 -1.5825 -9.6524 2.7587 -2.1079 13.8445 1.1805 -0.9694 5.8329 0.0000 -0.0000 0.0000 -86.4616 5.4663 42.0138 19.4722 -30.0012 -5.2649 -0.0000 0.0000 -14.4326 25.9485 -13.7387 -6.5924 -7.1250 0.0000 -0.0000 -0.9970 14.7704 0.7100 0.0000 -0.0000 0.0000 85.4280 -7.7549 25.0905 -18.4170 28.6878 -4.7477 0.0000 -0.0000 -0.0646 -32.7513 -38.9796 22.0300 7.1250 -0.0000 -0.0000 4.1636 -73.8397 -2.8415
8.7084 15.3730 -34.5196 -3.1425 -2.9276 8.9592 0.0000 0.0000 0.0000 -16.2611 -5.4544 -36.2908 10.0205 17.4214 59.5569 0.8334 -4.6330 -16.3124 0.4961 -4.5157 -12.5323 0.0000 0.0000 0.0000 26.9113 10.4004 -17.7065 -4.0465 -12.2220 36.5218 -0.5619 19.6889 -18.1905 -0.0005 -0.1449 0.3982 3.8308 2.4040 2.4924 2.1328 3.4437 -2.2743 -0.1342 1.6434 -3.6502 -3.0287 -1.6363 -9.7069 2.9816 -2.1937 13.8671 1.2647 -1.0006 5.8556 -0.0000 -0.0000 0.0000 -86.4714 6.3509 40.9865 18.2610 -28.4901 -4.6731 -0.0000 0.0000 -13.7609 25.4715 -13.2990 -6.2535 -7.1250 0.0000 -0.0000 -1.2909 15.3104 0.9045 -0.0000 -0.0000 0.0000 85.2115 -6.9837 27.6569 -19.6478 30.2157 -5.3530 0.0000 -0.0000 -1.4563 -34.7170 -38.7173 23.4308 7.1250 -0.0000 -0.0000 0.4589 -74.2621 -0.3172
8.7157 15.3960 -34.2419 -3.3091 -3.0961 9.0374 0.0000 0.0000 0.0000 -15.8743 -5.6528 -37.6904 9.3729 17.0418 57.3711 0.8971 -3.6682 -17.0401 0.7700 -5.6031 -15.6372 0.0000 0.0000 0.0000 27.1439 9.5753 -16.2745 -3.8541 -11.9637 35.6038 -0.4652 20.5613 -17.9779 -0.0023 -0.3105 0.8531 3.8692 2.4675 2.5617 2.1351 3.5339 -2.2691 -0.1609 1.6867 -3.6794 -3.1765 -1.6760 -9.8337 3.0433 -2.2335 14.0233 1.3046 -1.0216 5.9302 0.0000 0.0000 0.0000 -86.6860 7.1928 39.4747 16.9067 -26.7346 -4.0453 -0.0000 0.0000 -12.6356 24.6493 -13.2626 -6.0096 -7.1250 0.0000 -0.0000 -1.8525 15.4466 1.2929 0.0000 0.0000 0.0000 84.8878 -6.2692 29.8318 -20.9444 31.7634 -6.0207 0.0000 -0.0000 -2.1507 -34.5096 -39.0100 23.4015 7.1250 -0.0000 -0.0000 1.1409 -74.4878 -0.7942
8.7295 15.4208 -33.9623 -3.6193 -3.2405 9.1488 0.0000 0.0000 0.0000 -15.3232 -5.8686 -38.9002 8.6436 16.5728 54.8493 0.9653 -3.6261 -17.7051 0.5828 -4.8882 -13.5900 0.0000 0.0000 0.0000 27.4585 8.5204 -14.9482 -3.6466 -11.6746 34.5904 -0.3417 21.2954 -17.5319 -0.0089 -0.6098 1.6758 4.1679 2.5692 2.6533 2.1418 3.6919 -2.3493 -0.3342 1.7543 -3.7929 -3.2406 -1.6494 -9.8095 3.2202 -2.2186 14.1915 1.3728 -1.0042 5.9810 0.0000 0.0000 0.0000 -86.8755 7.9870 37.9373 15.3749 -24.6658 -3.3809 -0.0000 0.0000 -11.1752 24.0230 -14.0938 -6.1943 -7.1250 0.0000 -0.0000 -2.3345 14.6191 1.6711 0.0000 0.0000 0.0000 84.4637 -5.8143 31.8238 -22.4656 33.4993 -6.8411 0.0000 -0.0000 -2.6709 -33.7260 -39.5717 23.0388 7.1250 -0.0000 -0.0000 3.1893 -74.7783 -2.2406
8.7429 15.4250 -33.6814 -3.8262 -3.4253 9.2216 0.0000 0.0000 0.0000 -14.8162 -6.2938 -39.8169 7.8513 16.0088 52.0254 1.0390 -4.1826 -18.3225 0.2691 -3.3369 -9.2181 0.0000 0.0000 0.0000 27.6779 7.2457 -13.7261 -3.4144 -11.3375 33.4267 -0.2105 22.0392 -17.0657 -0.0204 -0.9213 2.5324 4.3631 2.7287 2.7438 2.0706 3.9186 -2.3955 -0.5332 1.8585 -3.8672 -3.1295 -1.7410 -9.6019 3.2126 -2.3616 14.0322 1.3417 -1.0705 5.8986 0.0000 0.0000 0.0000 -86.8666 8.7052 36.4185 13.9093 -22.6048 -2.7931 -0.0000 0.0000 -9.5473 23.6796 -15.4542 -6.6652 -7.1250 0.0000 -0.0000 -2.6582 13.1951 1.9834 0.0000 0.0000 0.0000 84.1613 -5.2957 33.5382 -24.1660 35.3393 -7.8024 0.0000 -0.0000 -3.1017 -32.7577 -39.8616 22.4105 7.1250 -0.0000 -0.0000 5.2536 -74.7220 -3.6860
8.7559 15.4193 -33.4003 -4.0131 -3.6820 9.2774 0.0000 0.0000 0.0000 -14.2188 -6.8872 -40.5700 7.0404 15.3658 49.0268 1.0748 -3.7111 -18.7080 0.3276 -3.6787 -10.1746 0.0000 0.0000 0.0000 27.8740 5.8606 -12.4373 -3.1628 -10.9540 32.1250 0.0128 23.0597 -16.1660 -0.0702 -1.7089 4.7018 4.4781 2.9160 2.8580 1.9888 4.1788 -2.4114 -0.7016 1.9819 -3.9245 -2.9787 -1.8916 -9.3841 3.1305 -2.5753 13.7197 1.2753 -1.1755 5.7673 0.0000 0.0000 0.0000 -86.8815 9.3037 34.3299 12.4868 -20.5307 -2.2701 -0.0000 0.0000 -7.1789 25.0696 -17.9215 -8.1912 -7.1250 0.0000 -0.0000 -1.9359 10.3399 1.5579 0.0000 0.0000 0.0000 83.9069 -4.5852 34.9219 -25.5513 36.7622 -8.6177 0.0000 -0.0000 -2.3909 -29.9138 -38.2981 19.6248 7.1250 -0.0000 -0.0000 7.8868 -72.1811 -5.1042
8.7695 15.4339 -33.1126 -4.1987 -3.9085 9.4472 0.0000 0.0000 0.0000 -13.5642 -7.5017 -41.3415 6.2204 14.6386 45.8600 1.0573 -2.2034 -18.8229 0.6708 -5.2374 -14.5869 0.0000 0.0000 0.0000 27.9959 4.5341 -11.1330 -2.8995 -10.5306 30.7125 0.2658 23.7841 -14.8690 -0.1327 -2.3476 6.4674 4.5401 3.0562 2.6280 1.9862 4.3491 -2.3180 -0.7305 2.0713 -3.6854 -2.7917 -1.7908 -9.4672 3.1718 -2.4696 13.6515 1.2653 -1.1108 5.7549 -0.0000 -0.0000 0.0000 -87.1486 9.6078 31.0361 11.0114 -18.3057 -1.7795 -0.0000 0.0000 -3.6788 29.6658 -23.4600 -12.7765 -7.1250 0.0000 -0.0000 0.2992 3.4403 -0.2807 -0.0000 -0.0000 0.0000 83.4219 -3.6730 36.4952 -26.7575 37.9469 -9.3496 0.0000 -0.0000 -1.9349 -27.9348 -34.9510 16.8971 7.1250 -0.0000 -0.0000 7.3411 -68.1955 -4.0976
8.7844 15.4645 -32.8232 -4.3716 -4.0317 9.6770 0.0000 0.0000 0.0000 -12.9937 -7.9082 -42.0685 5.4038 13.8245 42.5391 0.9957 -1.0800 -18.5298 0.9512 -6.2109 -17.3976 0.0000 0.0000 0.0000 28.0125 3.4316 -9.7688 -2.6313 -10.0727 29.2126 0.4620 24.0192 -13.5783 -0.1140 -2.1771 5.9953 4.6489 3.1377 2.3673 1.9785 4.4453 -2.3252 -0.7870 2.1198 -3.5331 -2.8397 -1.8070 -9.2246 3.1027 -2.4720 13.3337 1.2529 -1.1229 5.6138 -0.0000 0.0000 0.0000 -87.2596 10.2657 27.5569 9.7902 -16.4107 -1.4151 -0.0000 0.0000 -0.1395 26.2327 -14.4488 -7.0096 -7.1250 0.0000 -0.0000 -0.8599 13.9544 0.6272 -0.0000 0.0000 0.0000 82.9297 -2.9871 38.1701 -28.6275 39.6875 -10.5220 0.0000 -0.0000 -3.2848 -29.7331 -32.5077 17.0637 7.1250 -0.0000 -0.0000 3.1197 -66.2289 -1.5982
8.8028 15.4842 -32.5370 -4.5954 -4.2508 9.7652 0.0000 0.0000 0.0000 -12.2659 -8.3819 -42.4147 4.6157 12.9375 39.1349 0.9672 -0.4788 -18.4370 1.2007 -6.9523 -19.5741 0.0000 0.0000 0.0000 28.0330 2.2761 -8.2840 -2.3681 -9.5940 27.6717 0.6661 24.3880 -12.3012 -0.0837 -1.8664 5.1366 4.8255 3.2146 2.4739 1.9644 4.5667 -2.4261 -0.9143 2.1705 -3.6789 -2.8926 -1.7791 -9.1106 3.2087 -2.4437 13.3086 1.2979 -1.1053 5.5875 0.0000 0.0000 0.0000 -87.3112 11.1798 23.3730 8.7116 -14.6996 -1.1258 -0.0000 -0.0000 4.0449 24.8955 -12.4911 -5.7320 -7.1250 0.0000 -0.0000 -1.6341 16.2590 1.1117 0.0000 0.0000 0.0000 82.5064 -2.4704 39.7571 -30.7202 41.5028 -11.8840 0.0000 -0.0000 -4.6029 -28.3207 -35.9878 17.5715 7.1250 -0.0000 -0.0000 7.7511 -69.3582 -4.5307
8.8211 15.4910 -32.2471 -4.8620 -4.7126 9.8467 0.0000 0.0000 0.0000 -11.3384 -8.8292 -42.5781 3.8685 11.9833 35.6728 0.9519 -0.0097 -18.4441 1.4156 -7.5247 -21.2794 0.0000 0.0000 0.0000 28.0071 1.0079 -6.8811 -2.1187 -9.1090 26.1368 0.9559 25.1013 -10.6314 -0.0995 -2.0346 5.6012 4.9283 3.3197 2.3523 2.0151 4.6985 -2.3132 -0.9127 2.2401 -3.4829 -3.0486 -1.7158 -9.2343 3.2958 -2.3412 13.1792 1.3577 -1.0563 5.5677 0.0000 -0.0000 0.0000 -87.6791 11.4192 16.4471 7.3903 -12.5597 -0.8144 -0.0000 -0.0000 10.6641 24.8898 -13.3698 -6.1236 -7.1250 0.0000 -0.0000 -1.6946 15.3019 1.1878 0.0000 -0.0000 0.0000 81.9932 -1.5391 41.3653 -32.5026 42.9442 -13.0819 0.0000 -0.0000 -5.1240 -29.0147 -36.5273 18.2695 7.1250 -0.0000 -0.0000 7.2962 -70.1206 -4.3883
8.8385 15.4961 -31.9517 -5.2539 -5.2069 10.1479 0.0000 0.0000 0.0000 -10.1100 -9.3644 -42.8251 3.1892 10.9952 32.2636 0.9266 0.5481 -18.3981 1.4030 -7.4926 -21.1833 0.0000 0.0000 0.0000 28.0247 -0.2070 -5.6309 -1.8702 -8.5902 24.5217 1.2581 25.6350 -8.5845 -0.1241 -2.2711 6.2554 5.2061 3.4822 1.8899 2.0253 4.8886 -2.2463 -1.0282 2.3379 -3.1222 -3.1444 -1.6623 -9.1720 3.3399 -2.2578 12.9964 1.3939 -1.0185 5.4988 -0.0000 -0.0000 0.0000 -87.9334 11.6043 7.5539 6.1478 -10.5084 -0.5659 -0.0000 -0.0000 18.8733 24.8230 -14.0899 -6.4247 -7.1250 0.0000 -0.0000 -1.7894 14.5266 1.2840 -0.0000 -0.0000 0.0000 81.4850 -0.6640 42.9562 -34.2752 44.2876 -14.3049 0.0000 -0.0000 -6.0170 -30.2621 -36.8913 19.3029 7.1250 -0.0000 -0.0000 5.8413 -70.8932 -3.6114
